<?xml version="1.0" standalone="no"?>
<!DOCTYPE svg PUBLIC "-//W3C//DTD SVG 20010904//EN"
 "http://www.w3.org/TR/2001/REC-SVG-20010904/DTD/svg10.dtd">
<svg version="1.0" xmlns="http://www.w3.org/2000/svg"
 width="1024.000000pt" height="1024.000000pt" viewBox="0 0 1024.000000 1024.000000"
 preserveAspectRatio="xMidYMid meet">
<metadata>
Created by potrace 1.11, written by Peter Selinger 2001-2013
</metadata>
<g transform="translate(0.000000,1024.000000) scale(0.100000,-0.100000)"
fill="#000000" stroke="none">
<path d="M0 5120 l0 -5120 5120 0 5120 0 0 5120 0 5120 -5120 0 -5120 0 0
-5120z m3402 -1160 c1128 -1056 1193 -1120 1371 -1339 78 -96 152 -186 164
-200 l23 -26 -5 30 c-14 85 -37 364 -45 545 -5 113 -10 568 -10 1013 l0 807
380 0 380 0 0 -2001 0 -2000 -39 3 c-37 3 -94 54 -978 883 -515 484 -989 930
-1052 990 -110 106 -270 286 -416 467 -38 48 -70 86 -71 85 -2 -1 4 -51 12
-111 40 -305 44 -442 44 -1372 l0 -904 -375 0 -375 0 0 1996 0 1995 40 -3 c37
-3 89 -49 952 -858z m4322 820 c378 -20 637 -80 885 -204 271 -137 446 -302
575 -546 130 -247 185 -533 165 -857 -9 -152 -28 -251 -75 -393 -97 -293 -306
-526 -604 -675 -41 -20 -76 -39 -78 -40 -2 -2 181 -280 407 -619 l411 -616
-468 0 -468 0 -325 501 -324 501 -55 -6 c-30 -4 -148 -9 -262 -13 l-208 -6 0
-489 0 -488 -405 0 -405 0 0 1980 0 1980 523 0 c287 0 607 -5 711 -10z"/>
<path d="M7300 3300 l0 -783 263 6 c179 3 291 10 352 21 332 60 501 200 577
474 19 66 22 105 22 272 1 173 -2 204 -22 280 -50 183 -157 315 -323 397 -152
75 -300 101 -631 110 l-238 6 0 -783z"/>
</g>
</svg>
